<?xml version="1.0" encoding="windows-1252"?>
<!-- Generator: Adobe Illustrator 18.1.1, SVG Export Plug-In . SVG Version: 6.00 Build 0)  -->
<!DOCTYPE svg PUBLIC "-//W3C//DTD SVG 1.1//EN" "http://www.w3.org/Graphics/SVG/1.1/DTD/svg11.dtd">
<svg width="100" height="100" viewBox="0 16 76 60" xmlns="http://www.w3.org/2000/svg">
  <g fill="#e0e0e0">
	<path d="M72.9,14.4L56,25.3V22c0-4.4-3.6-8-8-8H8c-4.4,0-8,3.6-8,8v32c0,4.4,3.6,8,8,8h40c4.4,0,8-3.6,8-8v-3.3   l16.9,10.9c1.9,1,3.1-0.7,3.1-1.7V16C76,15,74.9,13.2,72.9,14.4z M52,54c0,2.2-1.8,4-4,4H8c-2.2,0-4-1.8-4-4V22c0-2.2,1.8-4,4-4h40   c2.2,0,4,1.8,4,4V54z M72,56.3L56,46V30l16-10.3V56.3z"/>
  </g>
</svg>

