<?xml version="1.0" encoding="utf-8"?>
<!DOCTYPE svg PUBLIC "-//W3C//DTD SVG 1.1//EN" "http://www.w3.org/Graphics/SVG/1.1/DTD/svg11.dtd">
<svg width="100" height="100" viewBox="8 16 32 23" xmlns="http://www.w3.org/2000/svg" xmlns:xlink="http://www.w3.org/1999/xlink">
  <g fill="#d8d8d8">
    <path id="path1" transform="rotate(0,24,24) translate(8.04700465934205,8) scale(0.999999882969725,0.999999882969725)" d="M4.985011,30.006004L25.923995,30.006004C26.474989,30.006003 26.921002,30.452013 26.921002,31.003003 26.921002,31.553993 26.474989,32.000003 25.923995,32.000003L4.985011,32.000003C4.4340165,32.000003 3.9880024,31.553993 3.9880026,31.003003 3.9880024,30.452013 4.4340165,30.006003 4.985011,30.006004z M26.897002,16.960994C26.670001,16.960994 26.485999,17.144993 26.485999,17.371991 26.485999,17.59899 26.670001,17.783989 26.897002,17.783989 27.124003,17.783989 27.308005,17.59899 27.308005,17.371991 27.308005,17.144993 27.124003,16.960994 26.897002,16.960994z M26.897002,15.964C27.673008,15.964 28.305012,16.595996 28.305012,17.371991 28.305012,18.148987 27.673008,18.780983 26.897002,18.780983 26.120997,18.780983 25.488991,18.148987 25.488991,17.371991 25.488991,16.595996 26.120997,15.964 26.897002,15.964z M26.896986,11.541002C26.428986,11.541002 26.046986,11.921999 26.046986,12.389996 26.046986,12.857994 26.428986,13.23999 26.896986,13.23999 27.364987,13.23999 27.746987,12.857994 27.746987,12.389996 27.746987,11.921999 27.364987,11.541002 26.896986,11.541002z M8.1429992,11.392996C7.0439997,11.392996,6.1490002,12.287996,6.1490002,13.386995L6.1490002,19.535992C6.1490002,20.635991,7.0439997,21.529991,8.1429992,21.529991L20.439993,21.529991C21.538992,21.529991,22.433993,20.635991,22.433993,19.535992L22.433993,13.386995C22.433993,12.287996,21.538992,11.392996,20.439993,11.392996z M26.896986,10.544008C27.914986,10.544008 28.743987,11.373003 28.743987,12.389996 28.743987,13.408989 27.914986,14.236984 26.896986,14.236984 25.877987,14.236984 25.049986,13.408989 25.049986,12.389996 25.049986,11.373003 25.877987,10.544008 26.896986,10.544008z M8.1429992,9.3989964L20.439993,9.3989964C22.639992,9.3989964,24.42799,11.187996,24.42799,13.386995L24.42799,19.535992C24.42799,21.735991,22.639992,23.52499,20.439993,23.52499L8.1429992,23.52499C5.9430003,23.52499,4.1550012,21.735991,4.155001,19.535992L4.155001,13.386995C4.1550012,11.187996,5.9430003,9.3989964,8.1429992,9.3989964z M2.9909995,8.0699997C2.4409995,8.0699997,1.9939996,8.5170002,1.9939996,9.0669994L1.9939996,25.019997C1.9939996,25.570996,2.4409995,26.017996,2.9909995,26.017997L28.914994,26.017997C29.464995,26.017996,29.911995,25.570996,29.911995,25.019997L29.911995,9.0669994C29.911995,8.5170002,29.464995,8.0699997,28.914994,8.0699997z M2.9909995,6.0760002L28.914994,6.0760002C30.564995,6.0760002,31.905995,7.4179993,31.905995,9.0669994L31.905995,25.019997C31.905995,26.669996,30.564995,28.011996,28.914994,28.011996L2.9909995,28.011996C1.3419998,28.011996,0,26.669996,0,25.019997L0,9.0669994C0,7.4179993,1.3419998,6.0760002,2.9909995,6.0760002z M8.0217557,0.047307968C8.0416512,0.04662323 8.0616045,0.047132492 8.0815039,0.048845291 8.1770201,0.057071686 8.2712884,0.093069077 8.3519158,0.15831566L13.720079,4.5030594C13.934085,4.6760483 13.967086,4.9900303 13.794081,5.2040176 13.695078,5.3260098 13.551074,5.3890076 13.406069,5.3890076 13.296066,5.3890076 13.185063,5.3530083 13.09206,5.2780132L7.7248971,0.9332695C7.5108905,0.76028061 7.4778895,0.4462986 7.6508949,0.23231125 7.7460539,0.11528778 7.8824863,0.052091599 8.0217557,0.047307968z M24.853692,0.0017871857C25.013222,-0.01169014 25.177197,0.051204681 25.285317,0.18559074 25.457308,0.39960861 25.42331,0.71363449 25.209321,0.88664818L19.963613,5.1139946C19.871618,5.1880016 19.760624,5.2240028 19.65063,5.2240028 19.505639,5.2240028 19.360647,5.1609993 19.261652,5.0379887 19.089662,4.8239708 19.12366,4.5099449 19.337648,4.3369312L24.584357,0.10958481C24.663853,0.045454025,24.757971,0.0098724365,24.853692,0.0017871857z" />
  </g>
</svg>
