<?xml version="1.0" encoding="UTF-8" standalone="no"?>
<!-- https://upload.wikimedia.org/wikipedia/commons/7/7f/Speech_bubble.svg -->
<!-- Created with Inkscape (http://www.inkscape.org/) -->
<svg
	xmlns:dc="http://purl.org/dc/elements/1.1/"
	xmlns:cc="http://creativecommons.org/ns#"
	xmlns:rdf="http://www.w3.org/1999/02/22-rdf-syntax-ns#"
	xmlns:svg="http://www.w3.org/2000/svg"
	xmlns="http://www.w3.org/2000/svg"
	xmlns:sodipodi="http://sodipodi.sourceforge.net/DTD/sodipodi-0.dtd"
	xmlns:inkscape="http://www.inkscape.org/namespaces/inkscape"
	id="Layer_1"
	version="1.0"
	viewBox="0 0 90 90"
	xml:space="preserve"
	inkscape:version="0.92.5 (2060ec1f9f, 2020-04-08)">
	<metadata id="metadata4146">
		<rdf:RDF><cc:Work rdf:about="">
		   <dc:format>image/svg+xml</dc:format>
		   <dc:type rdf:resource="http://purl.org/dc/dcmitype/StillImage" />
		   <dc:title></dc:title></cc:Work>
		</rdf:RDF>
	</metadata>
	<defs id="defs4144">
</defs>
<g transform="translate(-10 10)" transform-origin="center">
<path
   d="m 57.325611,0.6942796 c -13.085845,0 -23.693974,7.0356636 -23.693974,15.7136404 0,8.677976 10.608129,15.71364 23.693974,15.71364 4.102497,0 7.960536,-0.692005 11.325519,-1.908512 6.641179,2.382256 15.708578,6.881697 15.708578,6.881697 0,0 -5.912543,-3.189313 -8.35001,-7.061607 -0.622684,-0.989787 -0.987298,-2.027512 -1.196241,-3.024067 3.853305,-2.794526 6.206129,-6.515673 6.206129,-10.601151 0,-8.6779768 -10.608129,-15.7136404 -23.693975,-15.7136404 m 0,1.2520379 c 12.340637,0 22.380537,6.487474 22.380537,14.4621665 0,3.533905 -2.020174,6.944862 -5.688212,9.604597 l -0.653463,0.474308 0.160406,0.767014 c 0.263398,1.257678 0.720349,2.409327 1.357831,3.422801 0.20184,0.319777 0.424396,0.635607 0.662934,0.944104 -2.145657,-0.928312 -4.39253,-1.847601 -6.431644,-2.579085 l -0.464646,-0.166938 -0.464646,0.168066 c -3.3052,1.195076 -7.060248,1.826735 -10.859097,1.826735 -12.340636,0 -22.380536,-6.487474 -22.380536,-14.462166 0,-7.9746924 10.0399,-14.4616025 22.380536,-14.4616025 z"
   style="stroke:#aaa; stroke-opacity:1; stroke-width:2.5; stroke-miterlimit:4; stroke-dasharray:none" />
</g>

<g stroke="none" transform="translate(-10 5) matrix(0.59904372,0,0,0.52962085,1.1296306,18.359045)" transform-origin="center">
<path
   d="m 45.673,0 c 22.108,0 40.03,12.475 40.03,27.862 0,15.387 -17.922,27.862 -40.03,27.862 -6.931,0 -13.449,-1.227 -19.134,-3.384 C 15.319,56.564 0,64.542 0,64.542 c 0,0 9.989,-5.655 14.107,-12.521 1.052,-1.755 1.668,-3.595 2.021,-5.362 C 9.618,41.704 5.643,35.106 5.643,27.862 5.643,12.475 23.565,0 45.673,0 m 0,2.22 c -20.849,0 -37.811,11.503 -37.811,25.643 0,6.266 3.413,12.314 9.61,17.03 l 1.104,0.841 -0.271,1.36 c -0.445,2.23 -1.217,4.272 -2.294,6.069 -0.341,0.567 -0.717,1.127 -1.12,1.674 3.625,-1.646 7.421,-3.276 10.866,-4.573 l 0.785,-0.296 0.785,0.298 c 5.584,2.119 11.928,3.239 18.346,3.239 20.849,0 37.811,-11.503 37.811,-25.643 C 83.484,13.722 66.522,2.22 45.673,2.22 Z"
   style="stroke:#aaa; stroke-opacity:1; stroke-width:4; stroke-miterlimit:4; stroke-dasharray:none" />
</g>

</svg>
